<!-- Canada: Red | White | Red with maple leaf -->
<svg xmlns="http://www.w3.org/2000/svg" width="20" height="20">
  <rect width="5" height="20" fill="#FF0000"/>
  <rect x="5" width="10" height="20" fill="white"/>
  <rect x="15" width="5" height="20" fill="#FF0000"/>
  <!-- More realistic maple leaf -->
  <path fill="#FF0000" d="M10 2 L8.5 6 L5 5 L7 8 L5.5 11 L10 9.5 L14.5 11 L13 8 L15 5 L11.5 6 Z M10 2 L11.5 6 L15 5 L13 8 L14.5 11 L10 9.5 L10 13 L14 11 L12 14 L15 13 L13 16 L10 14 L7 16 L5 13 L8 14 L6 11 L10 13 Z" />
</svg>
